<?xml version="1.0" encoding="UTF-8" standalone="no"?>
<!-- Created with Inkscape (http://www.inkscape.org/) -->

<svg
   xmlns:dc="http://purl.org/dc/elements/1.1/"
   xmlns:cc="http://creativecommons.org/ns#"
   xmlns:rdf="http://www.w3.org/1999/02/22-rdf-syntax-ns#"
   xmlns:svg="http://www.w3.org/2000/svg"
   xmlns="http://www.w3.org/2000/svg"
   version="1.1"
   width="32"
   height="32"
   id="svg2">
  <defs
     id="defs4" />
  <metadata
     id="metadata7">
    <rdf:RDF>
      <cc:Work
         rdf:about="">
        <dc:format>image/svg+xml</dc:format>
        <dc:type
           rdf:resource="http://purl.org/dc/dcmitype/StillImage" />
        <dc:title></dc:title>
      </cc:Work>
    </rdf:RDF>
  </metadata>
  <g
     transform="translate(0,-1020.3622)"
     id="layer1">
    <rect
       width="32"
       height="32"
       x="0"
       y="1020.3622"
       id="rect2985"
       style="fill:#333333;fill-opacity:1;fill-rule:evenodd;stroke:#000000;stroke-width:0;stroke-linecap:butt;stroke-linejoin:miter;stroke-miterlimit:4;stroke-opacity:1;stroke-dasharray:none" />
  </g>
  <g
     id="layer2">
    <path
       d="m 6.5528577,15.971427 a 13.34143,13.34143 0 0 1 13.3414293,13.34143 l -13.3414296,0 z"
       transform="matrix(1.7989077,0,0,1.7989077,-7.7879853,-24.731122)"
       id="path3766"
       style="fill:#ffffff;fill-opacity:1;stroke:none" />
    <path
       d="m 6.5528577,15.971427 a 13.34143,13.34143 0 0 1 13.3414293,13.34143 l -13.3414296,0 z"
       transform="matrix(1.4241352,0,0,1.4241352,-5.3321549,-13.745471)"
       id="path3764"
       style="fill:#333333;fill-opacity:1;stroke:none" />
    <path
       d="m 6.5528577,15.971427 a 13.34143,13.34143 0 0 1 13.3414293,13.34143 l -13.3414296,0 z"
       transform="matrix(1.1243173,0,0,1.1243173,-3.3674908,-4.9569513)"
       id="path3762"
       style="fill:#ffffff;fill-opacity:1;stroke:none" />
    <path
       d="m 6.5528577,15.971427 a 13.34143,13.34143 0 0 1 13.3414293,13.34143 l -13.3414296,0 z"
       transform="matrix(0.74954486,0,0,0.74954486,-0.91166058,6.0286989)"
       id="path3760"
       style="fill:#333333;fill-opacity:1;stroke:none" />
    <path
       d="m -13.9375,9.375 a 1.3125,1.3125 0 0 1 1.3125,1.3125 l -1.3125,0 z"
       transform="matrix(4.5714286,0,0,4.5714286,67.714286,-20.857143)"
       id="path3763"
       style="fill:#ffffff;fill-opacity:1;stroke-width:0;stroke-miterlimit:4;stroke-dasharray:none" />
  </g>
</svg>
